<svg xmlns="http://www.w3.org/2000/svg" version="1.1" xmlns:xlink="http://www.w3.org/1999/xlink" xmlns:svgjs="http://svgjs.com/svgjs" width="1920" height="1000" preserveAspectRatio="none" viewBox="0 0 1920 1000"><g mask="url(&quot;#SvgjsMask1016&quot;)" fill="none"><path d="M1103.15 629.89 a261.06 261.06 0 1 0 522.12 0 a261.06 261.06 0 1 0 -522.12 0z" fill="rgba(190, 141, 144, 0.4)" class="triangle-float2"></path><path d="M871.81 372.3 a226.06 226.06 0 1 0 452.12 0 a226.06 226.06 0 1 0 -452.12 0z" fill="rgba(190, 141, 144, 0.4)" class="triangle-float3"></path><path d="M119.69 792.61 a328.2 328.2 0 1 0 656.4 0 a328.2 328.2 0 1 0 -656.4 0z" fill="rgba(190, 141, 144, 0.4)" class="triangle-float3"></path><path d="M-100.35 420.39 a185.43 185.43 0 1 0 370.86 0 a185.43 185.43 0 1 0 -370.86 0z" fill="rgba(190, 141, 144, 0.4)" class="triangle-float1"></path><path d="M-5.6 172.27 a281.42 281.42 0 1 0 562.84 0 a281.42 281.42 0 1 0 -562.84 0z" fill="rgba(190, 141, 144, 0.4)" class="triangle-float2"></path><path d="M-148.92 34.73 a252.3 252.3 0 1 0 504.6 0 a252.3 252.3 0 1 0 -504.6 0z" fill="rgba(190, 141, 144, 0.4)" class="triangle-float1"></path></g><defs><mask id="SvgjsMask1016"><rect width="1920" height="1000" fill="#ffffff"></rect></mask><style>
            @keyframes float1 {
                0%{transform: translate(0, 0)}
                50%{transform: translate(-10px, 0)}
                100%{transform: translate(0, 0)}
            }

            .triangle-float1 {
                animation: float1 5s infinite;
            }

            @keyframes float2 {
                0%{transform: translate(0, 0)}
                50%{transform: translate(-5px, -5px)}
                100%{transform: translate(0, 0)}
            }

            .triangle-float2 {
                animation: float2 4s infinite;
            }

            @keyframes float3 {
                0%{transform: translate(0, 0)}
                50%{transform: translate(0, -10px)}
                100%{transform: translate(0, 0)}
            }

            .triangle-float3 {
                animation: float3 6s infinite;
            }
        </style></defs></svg>