<svg xmlns="http://www.w3.org/2000/svg" version="1.1" xmlns:xlink="http://www.w3.org/1999/xlink" xmlns:svgjs="http://svgjs.com/svgjs" width="1440" height="560" preserveAspectRatio="none" viewBox="0 0 1440 560"><g mask="url(&quot;#SvgjsMask1020&quot;)" fill="none"><rect width="1440" height="560" x="0" y="0" fill="rgba(190, 141, 144, 1)"></rect><path d="M1440 0L808.88 0L1440 217.61z" fill="rgba(255, 255, 255, .1)"></path><path d="M808.88 0L1440 217.61L1440 327.21000000000004L391.75 0z" fill="rgba(255, 255, 255, .075)"></path><path d="M391.75 0L1440 327.21000000000004L1440 344.31000000000006L156.48 0z" fill="rgba(255, 255, 255, .05)"></path><path d="M156.48000000000002 0L1440 344.31000000000006L1440 353.74000000000007L75.75000000000001 0z" fill="rgba(255, 255, 255, .025)"></path><path d="M0 560L581.28 560L0 502.69z" fill="rgba(0, 0, 0, .1)"></path><path d="M0 502.69L581.28 560L753.4399999999999 560L0 440.21z" fill="rgba(0, 0, 0, .075)"></path><path d="M0 440.21000000000004L753.4399999999999 560L893.66 560L0 181.22000000000003z" fill="rgba(0, 0, 0, .05)"></path><path d="M0 181.22000000000003L893.66 560L1093.3 560L0 75.15000000000003z" fill="rgba(0, 0, 0, .025)"></path></g><defs><mask id="SvgjsMask1020"><rect width="1440" height="560" fill="#ffffff"></rect></mask></defs></svg>